<svg width="158" height="128" viewBox="0 0 158 128" version="1.1" xmlns="http://www.w3.org/2000/svg" xmlns:xlink="http://www.w3.org/1999/xlink" xmlns:figma="http://www.figma.com/figma/ns">
<title>hyp</title>
<g id="Canvas" transform="translate(53 148)" figma:type="canvas">
<g id="hyp" style="mix-blend-mode:normal;" figma:type="text">
<use xlink:href="#path0_fill" transform="translate(-53 -191)" fill="#FF7C5C" style="mix-blend-mode:normal;"/>
</g>
</g>
<defs>
<path id="path0_fill" d="M 5.64833 144L 4.02525 144C 2.42381 144 1.29847 143.61 0.649234 142.831C 0.0432822 142.009 -0.108206 140.97 0.19477 139.715L 24.541 46.0307C 25.0604 44.083 26.3805 43.1091 28.5014 43.1091L 31.5527 43.1091C 33.9766 43.1091 34.9504 44.1262 34.4743 46.1605L 17.9838 111.019L 30.1244 90.9576C 32.9811 86.1533 35.9675 82.5392 39.0839 80.1154C 42.2435 77.6916 44.927 76.4797 47.1344 76.4797L 49.9261 76.4797C 53.6916 76.4797 55.4662 78.2976 55.2498 81.9333C 55.1632 83.4049 54.8819 85.3959 54.4058 87.9062L 39.5383 142.117C 39.2786 143.372 38.5645 144 37.3959 144L 30.514 144C 30.0379 144 29.6483 143.74 29.3454 143.221C 29.0857 142.702 29.1073 141.901 29.4103 140.819L 43.4337 95.1776C 44.083 92.8404 44.4076 91.2822 44.4076 90.5032C 44.4076 89.7241 44.1046 89.3345 43.4986 89.3345C 42.8927 89.3345 42.1569 89.7457 41.2913 90.5681C 40.4689 91.3904 39.3219 92.8404 37.8503 94.9179C 36.0757 97.5582 33.7818 101.151 30.9684 105.695C 28.1984 110.197 24.2381 116.537 19.0875 124.718C 13.9369 132.898 10.8206 137.897 9.7385 139.715C 8.65645 141.533 8.0505 142.55 7.92065 142.766C 7.7908 142.94 7.66096 143.091 7.53111 143.221C 7.40126 143.351 7.27142 143.459 7.14157 143.546C 7.01172 143.632 6.88188 143.697 6.75203 143.74C 6.44905 143.913 6.08115 144 5.64833 144ZM 103.439 76.4797L 109.217 76.4797C 109.736 76.4797 110.169 76.826 110.515 77.5185C 110.905 78.1677 110.97 78.9684 110.71 79.9206C 107.42 92.3859 103.395 107.08 98.6342 124.004C 93.8731 140.884 91.1896 150.492 90.5837 152.83C 89.9777 155.167 88.7225 157.785 86.8181 160.685C 84.8704 163.715 82.5115 165.944 79.7415 167.372C 78.0968 168.281 76.8632 168.844 76.0408 169.06C 74.2663 169.58 71.7559 168.887 68.5097 166.983L 55.0057 159.322C 53.8371 158.803 53.2095 158.023 53.1229 156.985C 52.9931 155.946 53.2527 155.124 53.902 154.518L 55.9146 151.726C 56.6937 150.904 57.3862 150.406 57.9922 150.233C 58.5981 150.06 59.3555 150.189 60.2645 150.622L 75.067 159.711C 75.8894 160.144 76.6901 160.079 77.4692 159.517C 78.2915 158.997 78.9408 157.85 79.4169 156.076L 92.3366 110.5L 89.2852 116.343L 81.4295 129.522C 78.5729 134.413 75.6946 138.049 72.7947 140.429C 69.8948 142.81 67.3195 144 65.0688 144L 64.2897 144C 62.4286 144 60.8704 143.329 59.6152 141.987C 56.5422 138.568 55.828 133.829 57.4728 127.769L 71.0417 78.2976C 71.388 77.0857 72.1022 76.4797 73.1842 76.4797L 80.131 76.4797C 81.2131 76.4797 81.5593 77.5401 81.1698 79.661L 67.7307 125.757C 66.8217 129.349 66.9516 131.21 68.1202 131.34C 69.4619 131.47 71.6693 129.197 74.7424 124.523C 77.8587 119.849 83.0526 110.889 90.324 97.6447C 97.5954 84.4004 101.339 77.67 101.556 77.4536C 101.772 77.1939 101.967 76.9991 102.14 76.8693C 102.4 76.6096 102.833 76.4797 103.439 76.4797ZM 135.235 79.4013C 135.235 79.4013 134.239 83.3183 132.248 91.1524L 134.001 88.1659C 135.862 85.0929 137.983 82.4527 140.364 80.2453C 142.787 77.9946 144.757 76.8693 146.272 76.8693L 146.531 76.8693C 147.224 76.8693 148.328 77.3886 149.842 78.4274C 151.357 79.4229 152.807 80.7863 154.192 82.5176C 155.621 84.2056 156.616 85.9585 157.179 87.7764C 157.741 89.5942 157.655 93.2949 156.919 98.8783C 156.227 104.462 154.127 111.928 150.622 121.277C 147.116 130.583 143.675 136.794 140.299 139.91C 136.923 142.983 132.659 144.519 127.509 144.519C 124.522 144.519 121.752 143.74 119.199 142.182L 112.641 167.697C 112.122 169.645 110.78 170.619 108.616 170.619L 106.214 170.619C 104.786 170.619 103.79 170.207 103.227 169.385C 102.665 168.563 102.513 167.546 102.773 166.334L 125.107 79.2714C 125.583 77.4103 126.795 76.4797 128.742 76.4797L 132.573 76.4797C 134.824 76.4797 135.711 77.4536 135.235 79.4013ZM 121.146 134.651C 125.475 137.118 128.916 137.508 131.469 135.82C 134.023 134.088 136.468 130.647 138.805 125.497C 142.787 116.884 145.536 108.379 147.051 99.982C 147.743 96.2597 148.025 93.6195 147.895 92.0613C 147.765 90.4599 147.116 89.3345 145.947 88.6853C 144.778 88.0361 143.22 88.4905 141.273 90.0487C 139.325 91.6069 137.291 93.9657 135.17 97.1253C 133.092 100.285 131.015 104.483 128.937 109.72C 126.903 114.958 124.436 122.878 121.536 133.482L 121.146 134.651Z"/>
</defs>
</svg>
